# xmcd
#
# Track frame offsets: 
#        150
#        20527
#        35207
#        48037
#        56810
#        69440
#        85727
#        98110
#        117122
#        127805
#        145755
#        161205
#        175862
#        187135
#
# Disc length: 2681 seconds
#
# Revision: 3
# Processed by: cddbd v1.5.2PL0 Copyright (c) Steve Scherf et al.
# Submitted via: ExactAudioCopy v1.0b1
#
DISCID=be0a770e
DTITLE=Animals - The Animals
DYEAR=1900
DGENRE=
TTITLE0=House of The Rising Sun
TTITLE1=We've Gotta Get Out Of This Place
TTITLE2=Roadrunner
TTITLE3=Let The Good Times Roll
TTITLE4=Hallelujah I Love Her So
TTITLE5=I'm Going To Change The World
TTITLE6=Bring It On Home To Me
TTITLE7=Worried Life Blues
TTITLE8=Baby Let Me Take You Home
TTITLE9=For Miss Caulker
TTITLE10=I Believe To My Soul
TTITLE11=How You've Changed
TTITLE12=Don't Let Me Be Misunderstood
TTITLE13=It's My Life
EXTD=
EXTT0=
EXTT1=
EXTT2=
EXTT3=
EXTT4=
EXTT5=
EXTT6=
EXTT7=
EXTT8=
EXTT9=
EXTT10=
EXTT11=
EXTT12=
EXTT13=
PLAYORDER=
